<svg id="visual" viewBox="0 0 1366 450" width="1366" height="450" xmlns="http://www.w3.org/2000/svg" xmlns:xlink="http://www.w3.org/1999/xlink" version="1.1"><rect x="0" y="0" width="1366" height="450" fill="#001220"></rect><path d="M0 215L22.8 224.8C45.7 234.7 91.3 254.3 136.8 258.7C182.3 263 227.7 252 273.2 257.2C318.7 262.3 364.3 283.7 409.8 289.8C455.3 296 500.7 287 546.2 286C591.7 285 637.3 292 683 283C728.7 274 774.3 249 819.8 249.3C865.3 249.7 910.7 275.3 956.2 276.2C1001.7 277 1047.3 253 1092.8 251.2C1138.3 249.3 1183.7 269.7 1229.2 280C1274.7 290.3 1320.3 290.7 1343.2 290.8L1366 291L1366 451L1343.2 451C1320.3 451 1274.7 451 1229.2 451C1183.7 451 1138.3 451 1092.8 451C1047.3 451 1001.7 451 956.2 451C910.7 451 865.3 451 819.8 451C774.3 451 728.7 451 683 451C637.3 451 591.7 451 546.2 451C500.7 451 455.3 451 409.8 451C364.3 451 318.7 451 273.2 451C227.7 451 182.3 451 136.8 451C91.3 451 45.7 451 22.8 451L0 451Z" fill="#c62368"></path><path d="M0 271L22.8 277C45.7 283 91.3 295 136.8 306.3C182.3 317.7 227.7 328.3 273.2 332C318.7 335.7 364.3 332.3 409.8 333.8C455.3 335.3 500.7 341.7 546.2 330.7C591.7 319.7 637.3 291.3 683 290.5C728.7 289.7 774.3 316.3 819.8 319.2C865.3 322 910.7 301 956.2 300.5C1001.7 300 1047.3 320 1092.8 321.8C1138.3 323.7 1183.7 307.3 1229.2 295.7C1274.7 284 1320.3 277 1343.2 273.5L1366 270L1366 451L1343.2 451C1320.3 451 1274.7 451 1229.2 451C1183.7 451 1138.3 451 1092.8 451C1047.3 451 1001.7 451 956.2 451C910.7 451 865.3 451 819.8 451C774.3 451 728.7 451 683 451C637.3 451 591.7 451 546.2 451C500.7 451 455.3 451 409.8 451C364.3 451 318.7 451 273.2 451C227.7 451 182.3 451 136.8 451C91.3 451 45.7 451 22.8 451L0 451Z" fill="#e34c67"></path><path d="M0 386L22.8 381.8C45.7 377.7 91.3 369.3 136.8 372.2C182.3 375 227.7 389 273.2 395C318.7 401 364.3 399 409.8 388.3C455.3 377.7 500.7 358.3 546.2 356.3C591.7 354.3 637.3 369.7 683 374.2C728.7 378.7 774.3 372.3 819.8 372.2C865.3 372 910.7 378 956.2 383.2C1001.7 388.3 1047.3 392.7 1092.8 393.7C1138.3 394.7 1183.7 392.3 1229.2 387.2C1274.7 382 1320.3 374 1343.2 370L1366 366L1366 451L1343.2 451C1320.3 451 1274.7 451 1229.2 451C1183.7 451 1138.3 451 1092.8 451C1047.3 451 1001.7 451 956.2 451C910.7 451 865.3 451 819.8 451C774.3 451 728.7 451 683 451C637.3 451 591.7 451 546.2 451C500.7 451 455.3 451 409.8 451C364.3 451 318.7 451 273.2 451C227.7 451 182.3 451 136.8 451C91.3 451 45.7 451 22.8 451L0 451Z" fill="#fa7268"></path></svg>